<svg version="1" xmlns="http://www.w3.org/2000/svg" width="933.333" height="933.333" viewBox="0 0 700.000000 700.000000"><path d="M522 151.3c-14.1 5.1-25 14.5-36.3 31.4-3.7 5.6-6.7 10.3-6.7 10.6 0 .2-3.7 6-8.1 12.8-36.3 55.1-66.4 120.3-82.5 178.9-3.4 12.1-7.3 28.4-7.9 32.5-.2 1.1-1 5.6-1.9 10-3.6 17.5-4.4 26-4.1 43 .2 9.3.6 18.3.9 20 .3 1.6.8 4.3 1.1 6 2.9 17.3 9.3 32 18.3 41.6 10.9 11.9 32.5 22.7 51.6 26 7.8 1.3 18.6.7 26.1-1.5 6.2-1.9 15-7.2 25.2-15.1 7.7-6 31.7-29.5 33.4-32.6 1-1.9.7-2.2-20.5-19.4l-13-10.5-10.5 10.8c-9.9 10.1-21.8 20.4-26.6 23-3.4 1.7-11.5.3-19.5-3.4-13.9-6.5-16.6-10-19.7-25.2-1.7-8.9-2.5-30.6-1.3-37.2.4-2.5 1.1-6.7 1.5-9.4.3-2.7.8-5.2 1-5.6.2-.3.6-2.6 1-5 2.5-18.2 18.2-71 26.6-89.7 1.1-2.3 1.9-4.6 1.9-5.1 0-.4.8-2.6 1.9-4.8 1-2.1 4.2-9.3 7.2-15.9 5.8-13.2 17.5-36.3 24.6-48.9 9.4-16.7 32.8-54.2 40.9-65.4 3.3-4.6 6.3-6.7 6.4-4.5 0 .5.7 1.6 1.5 2.7 1.3 1.7 2.4 1.2 20.9-9.4 12.2-7 19.3-11.7 18.9-12.4-2.9-5.2-10.2-14.2-15-18.6-11.7-10.7-24.9-14.2-37.3-9.7zM206.6 160.2c-11.7 20.1-33.1 66.5-55 119.8-2.6 6.3-5.6 13.4-6.7 15.7-1 2.4-1.9 4.5-1.9 4.8 0 .4-.8 2.5-1.9 4.8-1 2.3-7.1 17.9-13.6 34.7-6.5 16.8-12.3 31.8-13 33.5-1.5 3.3-28.1 77.3-31.4 87.2C79 472.9 73.5 496 72.4 506c-.3 3-1 8.4-1.4 12-2.3 18.5.9 36.9 8.4 48.3 12.2 18.3 29.1 24.4 53.1 19.3 24.9-5.3 28.2-6.5 76-27.5 7.2-3.2 18.4-7.9 25-10.5 6.6-2.7 12.9-5.2 14-5.6 10.7-4.4 15.1-5.2 18.8-3.3 3 1.5 2.9 1.6 27.6-24.7l6-6.5-3.2-2.7c-4.7-4-15.4-9.4-21.8-11.1-6.4-1.6-19.3-1.5-25.9.3-7.7 2-19 6.1-32.5 11.6-11.8 4.8-16.8 6.9-29 12.4-2.2 1-8.5 3.7-14 6s-12.9 5.6-16.5 7.2c-10.4 4.8-36.2 11.7-39.2 10.5-3.9-1.4-2.8-23.2 2.3-45.2 2.5-11.1 6.5-23.7 14.9-47 3.9-11 9.1-25.5 11.6-32.2 7.7-21.5 27.7-74 31.9-83.8 2.3-5.3 14.7-35.9 16.1-39.6.7-2 2.4-6 3.7-9 1.4-3 4.3-9.7 6.5-14.9 12-28.9 32.7-73.2 39.5-84.8l3.7-6.3-2.7-2.3c-4.1-3.4-30.6-24.1-32-24.9-.8-.5-3 2.3-6.7 8.5z"/></svg>